# xmcd
#
# Track frame offsets:
#	150
#	12855
#	20636
#	33129
#	35293
#	47477
#	56877
#	68632
#	78839
#	83413
#	93655
#	103511
#	112932
#	115036
#	124634
#	133569
#	148648
#	150111
#	162655
#	181706
#	186118
#	194942
#
# Disc length: 2811 seconds
#
# Revision: 3
# Processed by: cddbd v1.5.2PL0 Copyright (c) Steve Scherf et al.
# Submitted via: EasyCDDAExtractor 10.0.2.1
#
DISCID=120af916
DTITLE=Johnny Cash - The Man In Black - 1959-62 - CD5
DYEAR=1991
DGENRE=Country
TTITLE0=The Girl In Saskatoon (take 1)
TTITLE1=The Girl In Saskatoon (take 2)
TTITLE2=The Girl In Saskatoon (take 3)
TTITLE3=The Girl In Saskatoon (take 4+5)
TTITLE4=The Girl In Saskatoon (take 6)
TTITLE5=The Girl In Saskatoon (take 7+8)
TTITLE6=The Girl In Saskatoon (take 9-master)
TTITLE7=An Empty Chair (take 1) (vocal: Roy Cash)
TTITLE8=An Empty Chair (take 2,3+4) (vocal: Roy Cash)
TTITLE9=An Empty Chair (take 5-master) (vocal: Roy Cash)
TTITLE10=Relief Is Just A Swallow Away (take 1) (vocal: Roy Cash)
TTITLE11=Relief Is Just A Swallow Away (take 2) (vocal: Roy Cash)
TTITLE12=Relief Is Just A Swallow Away (take 3+4) (vocal: Roy Cash)
TTITLE13=Relief Is Just A Swallow Away (take 5) (vocal: Roy Cash)
TTITLE14=Relief Is Just A Swallow Away (take 6-master) (vocal: Roy Cash)
TTITLE15=Riot In Cell Block #9 (take 1) (vocal: Ray Liberto, Jr.)
TTITLE16=Riot In Cell Block #9 (take 2) (vocal: Ray Liberto, Jr.)
TTITLE17=Riot In Cell Block #9 (take 3) (vocal: Ray Liberto, Jr.)
TTITLE18=It's A Sin To Tell A Lie (take 1) (vocal: Ray Liberto, Jr.)
TTITLE19=Rocket '69 (take 1) (vocal: Ray Liberto, Jr.)
TTITLE20=Rocket '69 (take 2) (vocal: Ray Liberto, Jr.)
TTITLE21=Blueberry Hill (take 1) (vocal: Ray Liberto, Jr.)
EXTD=YEAR: 1991 ID3G: 2
EXTT0=
EXTT1=
EXTT2=
EXTT3=
EXTT4=
EXTT5=
EXTT6=
EXTT7=
EXTT8=
EXTT9=
EXTT10=
EXTT11=
EXTT12=
EXTT13=
EXTT14=
EXTT15=
EXTT16=
EXTT17=
EXTT18=
EXTT19=
EXTT20=
EXTT21=
PLAYORDER=
